# xmcd CD database file
#
# Track frame offsets:
#	150
#	10544
#	25721
#	43138
#	54750
#	68118
#	79542
#	92298
#	107433
#	121221
#	141500
#	163713
#	174947
#	191334
#
# Disc length: 2674 seconds
#
# Revision: 1
# Processed by: cddbd v1.5.2PL0 Copyright (c) Steve Scherf et al.
# Submitted via: CDex 1.70beta2
#
DISCID=9c0a700e
DTITLE=Piticco, Steve - Cdn. - OVM -  - Steve Piticco
DYEAR=2005
DGENRE=Country
TTITLE0=The Columbus Stockade Blues
TTITLE1=Cowboys Ain't Supposed to Cry
TTITLE2=Noboby's Darling But Mine
TTITLE3=Carolyn
TTITLE4=Chew Tobacco Rag
TTITLE5=Whooper Snooper
TTITLE6=The Kentuckian Song
TTITLE7=Till the River Runs Dry
TTITLE8=Mansion on the Hill
TTITLE9=Orange Blossm Special
TTITLE10=One Way Rider
TTITLE11=You're My Best Friend
TTITLE12=You and Me
TTITLE13=I'm So Lonesome I Could Cry
EXTD=YEAR: 2005
EXTT0=
EXTT1=
EXTT2=
EXTT3=
EXTT4=
EXTT5=
EXTT6=
EXTT7=
EXTT8=
EXTT9=
EXTT10=
EXTT11=
EXTT12=
EXTT13=
PLAYORDER=
